<svg width="633" height="743" viewBox="0 0 633 743" fill="none" xmlns="http://www.w3.org/2000/svg">
<g filter="url(#filter0_bii_9_7)">
<path fill-rule="evenodd" clip-rule="evenodd" d="M63.6865 589.643C81.1546 589.763 100.51 583.357 113.951 592.943C127.931 602.913 129.067 620.52 128.868 636.129C128.672 651.525 124.593 666.739 112.863 678.38C100.234 690.913 82.9221 702.117 63.6865 700.818C45.1709 699.569 33.574 684.476 21.6735 672.225C11.262 661.507 2.42215 650.024 0.847639 636.129C-0.912272 620.598 -1.15281 602.428 12.6106 592.246C26.0465 582.307 45.9571 589.521 63.6865 589.643Z" fill="#C4C4C4" fill-opacity="0.1"/>
</g>
<g filter="url(#filter1_bii_9_7)">
<path fill-rule="evenodd" clip-rule="evenodd" d="M196.199 425.001C207.003 424.827 211.286 439.944 219.629 447.429C229.823 456.573 247.016 458.872 249.67 472.969C252.443 487.698 242.048 501.724 231.729 511.701C222.015 521.092 209.18 524.961 196.199 524.665C183.521 524.377 171.79 519.065 162.123 510.117C151.442 500.229 137.612 487.95 140.352 472.969C143.074 458.09 162.522 457.563 173.454 448.174C181.927 440.895 185.413 425.176 196.199 425.001Z" fill="#C4C4C4" fill-opacity="0.1"/>
</g>
<g filter="url(#filter2_bii_9_7)">
<path fill-rule="evenodd" clip-rule="evenodd" d="M374.419 409.193C388.219 407.505 401.459 417.133 409.716 428.397C417.049 438.4 413.71 451.541 414.556 463.946C415.517 478.048 425.177 495.088 414.919 504.735C404.633 514.409 388.381 503.475 374.419 501.695C363.424 500.293 352.346 501.599 343.02 495.569C330.948 487.763 315.129 478.365 316.037 463.946C316.944 449.548 336.282 445.927 346.766 436.095C356.516 426.951 361.193 410.81 374.419 409.193Z" fill="#C4C4C4" fill-opacity="0.1"/>
</g>
<g filter="url(#filter3_bii_9_7)">
<path fill-rule="evenodd" clip-rule="evenodd" d="M288.629 636.117C306.131 635.729 325.895 620.13 338.94 631.617C351.934 643.059 338.831 663.993 339.746 681.128C340.765 700.229 357.48 721.875 344.517 736.127C331.598 750.331 307.977 738.267 288.629 737.326C270.965 736.467 250.012 743.727 238.005 730.947C226.085 718.26 235.379 698.402 235.829 681.128C236.258 664.655 227.881 644.589 240.537 633.8C253.148 623.049 271.949 636.487 288.629 636.117Z" fill="#C4C4C4" fill-opacity="0.1"/>
</g>
<g filter="url(#filter4_bii_9_7)">
<path fill-rule="evenodd" clip-rule="evenodd" d="M188.261 131.015C203.747 130.289 205.913 156.263 215.718 169.266C223.686 179.832 237.026 185.638 239.533 199.007C242.471 214.677 240.465 232.95 229.715 243.908C219.115 254.715 202.796 250.416 188.261 251.275C172.247 252.222 154.28 260.295 142.021 249.092C129.436 237.591 126.411 216.115 131.068 199.007C135.059 184.344 153.575 183.032 163.081 171.732C173.64 159.179 172.597 131.749 188.261 131.015Z" fill="#C4C4C4" fill-opacity="0.1"/>
</g>
<g filter="url(#filter5_bii_9_7)">
<path fill-rule="evenodd" clip-rule="evenodd" d="M284.482 312.586C294.221 313.358 301.842 319.391 309.578 325.29C319.121 332.567 331.015 338.471 333.665 350.093C336.775 363.73 332.985 378.389 324.18 389.328C314.375 401.509 300.206 410.339 284.482 411.195C267.993 412.093 250.609 406.538 240.154 393.905C230.333 382.037 230.856 365.123 233.918 350.093C236.396 337.925 244.968 328.417 255.012 320.967C263.511 314.663 273.89 311.747 284.482 312.586Z" fill="url(#paint0_linear_9_7)" fill-opacity="0.1"/>
</g>
<g filter="url(#filter6_bii_9_7)">
<path fill-rule="evenodd" clip-rule="evenodd" d="M396.79 147.346C416.526 149.844 421.645 168.284 433.257 180.263C441.753 189.026 452.2 196.431 454.654 207.036C457.66 220.027 458.114 233.79 448.18 244.765C436.181 258.024 418.471 271.14 396.79 270.971C375.196 270.804 358.957 256.914 346.475 243.976C336.144 233.267 335.346 220.158 335.11 207.036C334.868 193.649 334.105 179.772 345.127 169.106C357.601 157.034 376.451 144.771 396.79 147.346Z" fill="#C4C4C4" fill-opacity="0.1"/>
</g>
<g filter="url(#filter7_bii_9_7)">
<path fill-rule="evenodd" clip-rule="evenodd" d="M285.553 5.15742C302.411 2.3558 321.712 -4.8206 335.006 5.02138C348.634 15.1108 348.981 34.2485 346.166 50.031C343.75 63.5788 330.849 71.9261 321.193 82.4692C309.783 94.9291 303.242 114.239 285.553 116.217C267.302 118.258 249.934 105.597 239.928 91.5559C231.32 79.4766 236.141 64.2827 238.386 50.031C240.185 38.6157 242.612 27.2536 251.371 18.9206C260.324 10.4024 272.811 7.2749 285.553 5.15742Z" fill="#C4C4C4" fill-opacity="0.1"/>
</g>
<g filter="url(#filter8_bii_9_7)">
<path fill-rule="evenodd" clip-rule="evenodd" d="M555.051 255.148C575.643 257.054 581.444 278.939 595.403 291.582C608.131 303.109 629.282 309.47 632.066 324.897C635.077 341.58 622.491 356.837 609.535 369.879C594.757 384.754 578.348 402.84 555.051 402.42C531.908 402.002 518.337 382.195 502.898 367.955C488.77 354.923 470.673 342.384 471.004 324.897C471.333 307.551 489.685 295.465 504.505 283.166C519.384 270.818 534.086 253.207 555.051 255.148Z" fill="#C4C4C4" fill-opacity="0.1"/>
</g>
<defs>
<filter id="filter0_bii_9_7" x="-19.6" y="567.4" width="168.087" height="153.121" filterUnits="userSpaceOnUse" color-interpolation-filters="sRGB">
<feFlood flood-opacity="0" result="BackgroundImageFix"/>
<feGaussianBlur in="BackgroundImage" stdDeviation="9.8"/>
<feComposite in2="SourceAlpha" operator="in" result="effect1_backgroundBlur_9_7"/>
<feBlend mode="normal" in="SourceGraphic" in2="effect1_backgroundBlur_9_7" result="shape"/>
<feColorMatrix in="SourceAlpha" type="matrix" values="0 0 0 0 0 0 0 0 0 0 0 0 0 0 0 0 0 0 127 0" result="hardAlpha"/>
<feOffset dx="-9.8" dy="9.8"/>
<feGaussianBlur stdDeviation="4.9"/>
<feComposite in2="hardAlpha" operator="arithmetic" k2="-1" k3="1"/>
<feColorMatrix type="matrix" values="0 0 0 0 1 0 0 0 0 1 0 0 0 0 1 0 0 0 0.1 0"/>
<feBlend mode="normal" in2="shape" result="effect2_innerShadow_9_7"/>
<feColorMatrix in="SourceAlpha" type="matrix" values="0 0 0 0 0 0 0 0 0 0 0 0 0 0 0 0 0 0 127 0" result="hardAlpha"/>
<feOffset dx="9.8" dy="-9.8"/>
<feGaussianBlur stdDeviation="4.9"/>
<feComposite in2="hardAlpha" operator="arithmetic" k2="-1" k3="1"/>
<feColorMatrix type="matrix" values="0 0 0 0 0.584157 0 0 0 0 0.584157 0 0 0 0 0.584157 0 0 0 0.1 0"/>
<feBlend mode="normal" in2="effect2_innerShadow_9_7" result="effect3_innerShadow_9_7"/>
</filter>
<filter id="filter1_bii_9_7" x="123.067" y="408.067" width="143.992" height="133.548" filterUnits="userSpaceOnUse" color-interpolation-filters="sRGB">
<feFlood flood-opacity="0" result="BackgroundImageFix"/>
<feGaussianBlur in="BackgroundImage" stdDeviation="8.46667"/>
<feComposite in2="SourceAlpha" operator="in" result="effect1_backgroundBlur_9_7"/>
<feBlend mode="normal" in="SourceGraphic" in2="effect1_backgroundBlur_9_7" result="shape"/>
<feColorMatrix in="SourceAlpha" type="matrix" values="0 0 0 0 0 0 0 0 0 0 0 0 0 0 0 0 0 0 127 0" result="hardAlpha"/>
<feOffset dx="-8.46667" dy="8.46667"/>
<feGaussianBlur stdDeviation="4.23333"/>
<feComposite in2="hardAlpha" operator="arithmetic" k2="-1" k3="1"/>
<feColorMatrix type="matrix" values="0 0 0 0 1 0 0 0 0 1 0 0 0 0 1 0 0 0 0.1 0"/>
<feBlend mode="normal" in2="shape" result="effect2_innerShadow_9_7"/>
<feColorMatrix in="SourceAlpha" type="matrix" values="0 0 0 0 0 0 0 0 0 0 0 0 0 0 0 0 0 0 127 0" result="hardAlpha"/>
<feOffset dx="8.46667" dy="-8.46667"/>
<feGaussianBlur stdDeviation="4.23333"/>
<feComposite in2="hardAlpha" operator="arithmetic" k2="-1" k3="1"/>
<feColorMatrix type="matrix" values="0 0 0 0 0.584157 0 0 0 0 0.584157 0 0 0 0 0.584157 0 0 0 0.1 0"/>
<feBlend mode="normal" in2="effect2_innerShadow_9_7" result="effect3_innerShadow_9_7"/>
</filter>
<filter id="filter2_bii_9_7" x="299.6" y="392.6" width="136.399" height="132.481" filterUnits="userSpaceOnUse" color-interpolation-filters="sRGB">
<feFlood flood-opacity="0" result="BackgroundImageFix"/>
<feGaussianBlur in="BackgroundImage" stdDeviation="8.2"/>
<feComposite in2="SourceAlpha" operator="in" result="effect1_backgroundBlur_9_7"/>
<feBlend mode="normal" in="SourceGraphic" in2="effect1_backgroundBlur_9_7" result="shape"/>
<feColorMatrix in="SourceAlpha" type="matrix" values="0 0 0 0 0 0 0 0 0 0 0 0 0 0 0 0 0 0 127 0" result="hardAlpha"/>
<feOffset dx="-8.2" dy="8.2"/>
<feGaussianBlur stdDeviation="4.1"/>
<feComposite in2="hardAlpha" operator="arithmetic" k2="-1" k3="1"/>
<feColorMatrix type="matrix" values="0 0 0 0 1 0 0 0 0 1 0 0 0 0 1 0 0 0 0.1 0"/>
<feBlend mode="normal" in2="shape" result="effect2_innerShadow_9_7"/>
<feColorMatrix in="SourceAlpha" type="matrix" values="0 0 0 0 0 0 0 0 0 0 0 0 0 0 0 0 0 0 127 0" result="hardAlpha"/>
<feOffset dx="8.2" dy="-8.2"/>
<feGaussianBlur stdDeviation="4.1"/>
<feComposite in2="hardAlpha" operator="arithmetic" k2="-1" k3="1"/>
<feColorMatrix type="matrix" values="0 0 0 0 0.584157 0 0 0 0 0.584157 0 0 0 0 0.584157 0 0 0 0.1 0"/>
<feBlend mode="normal" in2="effect2_innerShadow_9_7" result="effect3_innerShadow_9_7"/>
</filter>
<filter id="filter3_bii_9_7" x="213.155" y="608.604" width="155.067" height="153.196" filterUnits="userSpaceOnUse" color-interpolation-filters="sRGB">
<feFlood flood-opacity="0" result="BackgroundImageFix"/>
<feGaussianBlur in="BackgroundImage" stdDeviation="9.4"/>
<feComposite in2="SourceAlpha" operator="in" result="effect1_backgroundBlur_9_7"/>
<feBlend mode="normal" in="SourceGraphic" in2="effect1_backgroundBlur_9_7" result="shape"/>
<feColorMatrix in="SourceAlpha" type="matrix" values="0 0 0 0 0 0 0 0 0 0 0 0 0 0 0 0 0 0 127 0" result="hardAlpha"/>
<feOffset dx="-9.4" dy="9.4"/>
<feGaussianBlur stdDeviation="4.7"/>
<feComposite in2="hardAlpha" operator="arithmetic" k2="-1" k3="1"/>
<feColorMatrix type="matrix" values="0 0 0 0 1 0 0 0 0 1 0 0 0 0 1 0 0 0 0.1 0"/>
<feBlend mode="normal" in2="shape" result="effect2_innerShadow_9_7"/>
<feColorMatrix in="SourceAlpha" type="matrix" values="0 0 0 0 0 0 0 0 0 0 0 0 0 0 0 0 0 0 127 0" result="hardAlpha"/>
<feOffset dx="9.4" dy="-9.4"/>
<feGaussianBlur stdDeviation="4.7"/>
<feComposite in2="hardAlpha" operator="arithmetic" k2="-1" k3="1"/>
<feColorMatrix type="matrix" values="0 0 0 0 0.584157 0 0 0 0 0.584157 0 0 0 0 0.584157 0 0 0 0.1 0"/>
<feBlend mode="normal" in2="effect2_innerShadow_9_7" result="effect3_innerShadow_9_7"/>
</filter>
<filter id="filter4_bii_9_7" x="110" y="112" width="149.757" height="161.973" filterUnits="userSpaceOnUse" color-interpolation-filters="sRGB">
<feFlood flood-opacity="0" result="BackgroundImageFix"/>
<feGaussianBlur in="BackgroundImage" stdDeviation="9.5"/>
<feComposite in2="SourceAlpha" operator="in" result="effect1_backgroundBlur_9_7"/>
<feBlend mode="normal" in="SourceGraphic" in2="effect1_backgroundBlur_9_7" result="shape"/>
<feColorMatrix in="SourceAlpha" type="matrix" values="0 0 0 0 0 0 0 0 0 0 0 0 0 0 0 0 0 0 127 0" result="hardAlpha"/>
<feOffset dx="-9.5" dy="9.5"/>
<feGaussianBlur stdDeviation="4.75"/>
<feComposite in2="hardAlpha" operator="arithmetic" k2="-1" k3="1"/>
<feColorMatrix type="matrix" values="0 0 0 0 1 0 0 0 0 1 0 0 0 0 1 0 0 0 0.1 0"/>
<feBlend mode="normal" in2="shape" result="effect2_innerShadow_9_7"/>
<feColorMatrix in="SourceAlpha" type="matrix" values="0 0 0 0 0 0 0 0 0 0 0 0 0 0 0 0 0 0 127 0" result="hardAlpha"/>
<feOffset dx="9.5" dy="-9.5"/>
<feGaussianBlur stdDeviation="4.75"/>
<feComposite in2="hardAlpha" operator="arithmetic" k2="-1" k3="1"/>
<feColorMatrix type="matrix" values="0 0 0 0 0.584157 0 0 0 0 0.584157 0 0 0 0 0.584157 0 0 0 0.1 0"/>
<feBlend mode="normal" in2="effect2_innerShadow_9_7" result="effect3_innerShadow_9_7"/>
</filter>
<filter id="filter5_bii_9_7" x="215.689" y="296.179" width="135.317" height="131.377" filterUnits="userSpaceOnUse" color-interpolation-filters="sRGB">
<feFlood flood-opacity="0" result="BackgroundImageFix"/>
<feGaussianBlur in="BackgroundImage" stdDeviation="8.13333"/>
<feComposite in2="SourceAlpha" operator="in" result="effect1_backgroundBlur_9_7"/>
<feBlend mode="normal" in="SourceGraphic" in2="effect1_backgroundBlur_9_7" result="shape"/>
<feColorMatrix in="SourceAlpha" type="matrix" values="0 0 0 0 0 0 0 0 0 0 0 0 0 0 0 0 0 0 127 0" result="hardAlpha"/>
<feOffset dx="-8.13333" dy="8.13333"/>
<feGaussianBlur stdDeviation="4.06667"/>
<feComposite in2="hardAlpha" operator="arithmetic" k2="-1" k3="1"/>
<feColorMatrix type="matrix" values="0 0 0 0 1 0 0 0 0 1 0 0 0 0 1 0 0 0 0.1 0"/>
<feBlend mode="normal" in2="shape" result="effect2_innerShadow_9_7"/>
<feColorMatrix in="SourceAlpha" type="matrix" values="0 0 0 0 0 0 0 0 0 0 0 0 0 0 0 0 0 0 127 0" result="hardAlpha"/>
<feOffset dx="8.13333" dy="-8.13333"/>
<feGaussianBlur stdDeviation="4.06667"/>
<feComposite in2="hardAlpha" operator="arithmetic" k2="-1" k3="1"/>
<feColorMatrix type="matrix" values="0 0 0 0 0.572474 0 0 0 0 0.572474 0 0 0 0 0.572474 0 0 0 0.1 0"/>
<feBlend mode="normal" in2="effect2_innerShadow_9_7" result="effect3_innerShadow_9_7"/>
</filter>
<filter id="filter6_bii_9_7" x="315.2" y="127.2" width="161.146" height="163.573" filterUnits="userSpaceOnUse" color-interpolation-filters="sRGB">
<feFlood flood-opacity="0" result="BackgroundImageFix"/>
<feGaussianBlur in="BackgroundImage" stdDeviation="9.9"/>
<feComposite in2="SourceAlpha" operator="in" result="effect1_backgroundBlur_9_7"/>
<feBlend mode="normal" in="SourceGraphic" in2="effect1_backgroundBlur_9_7" result="shape"/>
<feColorMatrix in="SourceAlpha" type="matrix" values="0 0 0 0 0 0 0 0 0 0 0 0 0 0 0 0 0 0 127 0" result="hardAlpha"/>
<feOffset dx="-9.9" dy="9.9"/>
<feGaussianBlur stdDeviation="4.95"/>
<feComposite in2="hardAlpha" operator="arithmetic" k2="-1" k3="1"/>
<feColorMatrix type="matrix" values="0 0 0 0 1 0 0 0 0 1 0 0 0 0 1 0 0 0 0.1 0"/>
<feBlend mode="normal" in2="shape" result="effect2_innerShadow_9_7"/>
<feColorMatrix in="SourceAlpha" type="matrix" values="0 0 0 0 0 0 0 0 0 0 0 0 0 0 0 0 0 0 127 0" result="hardAlpha"/>
<feOffset dx="9.9" dy="-9.9"/>
<feGaussianBlur stdDeviation="4.95"/>
<feComposite in2="hardAlpha" operator="arithmetic" k2="-1" k3="1"/>
<feColorMatrix type="matrix" values="0 0 0 0 0.584157 0 0 0 0 0.584157 0 0 0 0 0.584157 0 0 0 0.1 0"/>
<feBlend mode="normal" in2="effect2_innerShadow_9_7" result="effect3_innerShadow_9_7"/>
</filter>
<filter id="filter7_bii_9_7" x="216.533" y="-18.4667" width="149.506" height="153.367" filterUnits="userSpaceOnUse" color-interpolation-filters="sRGB">
<feFlood flood-opacity="0" result="BackgroundImageFix"/>
<feGaussianBlur in="BackgroundImage" stdDeviation="9.23333"/>
<feComposite in2="SourceAlpha" operator="in" result="effect1_backgroundBlur_9_7"/>
<feBlend mode="normal" in="SourceGraphic" in2="effect1_backgroundBlur_9_7" result="shape"/>
<feColorMatrix in="SourceAlpha" type="matrix" values="0 0 0 0 0 0 0 0 0 0 0 0 0 0 0 0 0 0 127 0" result="hardAlpha"/>
<feOffset dx="-9.23333" dy="9.23333"/>
<feGaussianBlur stdDeviation="4.61667"/>
<feComposite in2="hardAlpha" operator="arithmetic" k2="-1" k3="1"/>
<feColorMatrix type="matrix" values="0 0 0 0 1 0 0 0 0 1 0 0 0 0 1 0 0 0 0.1 0"/>
<feBlend mode="normal" in2="shape" result="effect2_innerShadow_9_7"/>
<feColorMatrix in="SourceAlpha" type="matrix" values="0 0 0 0 0 0 0 0 0 0 0 0 0 0 0 0 0 0 127 0" result="hardAlpha"/>
<feOffset dx="9.23333" dy="-9.23333"/>
<feGaussianBlur stdDeviation="4.61667"/>
<feComposite in2="hardAlpha" operator="arithmetic" k2="-1" k3="1"/>
<feColorMatrix type="matrix" values="0 0 0 0 0.584157 0 0 0 0 0.584157 0 0 0 0 0.584157 0 0 0 0.1 0"/>
<feBlend mode="normal" in2="effect2_innerShadow_9_7" result="effect3_innerShadow_9_7"/>
</filter>
<filter id="filter8_bii_9_7" x="446.067" y="230.067" width="211.384" height="197.294" filterUnits="userSpaceOnUse" color-interpolation-filters="sRGB">
<feFlood flood-opacity="0" result="BackgroundImageFix"/>
<feGaussianBlur in="BackgroundImage" stdDeviation="12.4667"/>
<feComposite in2="SourceAlpha" operator="in" result="effect1_backgroundBlur_9_7"/>
<feBlend mode="normal" in="SourceGraphic" in2="effect1_backgroundBlur_9_7" result="shape"/>
<feColorMatrix in="SourceAlpha" type="matrix" values="0 0 0 0 0 0 0 0 0 0 0 0 0 0 0 0 0 0 127 0" result="hardAlpha"/>
<feOffset dx="-12.4667" dy="12.4667"/>
<feGaussianBlur stdDeviation="6.23333"/>
<feComposite in2="hardAlpha" operator="arithmetic" k2="-1" k3="1"/>
<feColorMatrix type="matrix" values="0 0 0 0 1 0 0 0 0 1 0 0 0 0 1 0 0 0 0.1 0"/>
<feBlend mode="normal" in2="shape" result="effect2_innerShadow_9_7"/>
<feColorMatrix in="SourceAlpha" type="matrix" values="0 0 0 0 0 0 0 0 0 0 0 0 0 0 0 0 0 0 127 0" result="hardAlpha"/>
<feOffset dx="12.4667" dy="-12.4667"/>
<feGaussianBlur stdDeviation="6.23333"/>
<feComposite in2="hardAlpha" operator="arithmetic" k2="-1" k3="1"/>
<feColorMatrix type="matrix" values="0 0 0 0 0.584157 0 0 0 0 0.584157 0 0 0 0 0.584157 0 0 0 0.1 0"/>
<feBlend mode="normal" in2="effect2_innerShadow_9_7" result="effect3_innerShadow_9_7"/>
</filter>
<linearGradient id="paint0_linear_9_7" x1="283.347" y1="312.445" x2="283.347" y2="411.289" gradientUnits="userSpaceOnUse">
<stop stop-color="#DCDCDC"/>
<stop offset="1" stop-color="#A5A5A5"/>
</linearGradient>
</defs>
</svg>
