<svg width="24" height="24" viewBox="0 0 24 24" fill="none" xmlns="http://www.w3.org/2000/svg">
<path d="M11.1443 0H15.0698V18.1642C13.0583 18.5467 11.5778 18.6998 9.97202 18.6998C5.18327 18.6998 2.68652 16.536 2.68652 12.3795C2.68652 8.37975 5.33477 5.78175 9.43652 5.78175C10.0733 5.78175 10.5578 5.83275 11.1435 5.985L11.1443 0ZM11.1443 9.14475C10.7179 9.00018 10.2699 8.93016 9.81977 8.93775C7.83152 8.93775 6.68702 10.1602 6.68702 12.3053C6.68702 14.3947 7.78052 15.54 9.79652 15.54C10.23 15.54 10.5855 15.5167 11.1443 15.4387V9.14175V9.14475ZM21.3128 6.0585V15.156C21.3128 18.2887 21.0863 19.797 20.3985 21.0938C19.7618 22.344 18.918 23.133 17.1878 24L13.5435 22.2653C15.2738 21.4485 16.1175 20.7383 16.653 19.6403C17.2118 18.519 17.391 17.2185 17.391 13.8045V6.0585H21.3128ZM17.391 0.0195H21.3128V4.047H17.391V0.0195Z" fill="black"/>
</svg>
