<svg width="146" height="146" viewBox="0 0 146 146" fill="none" xmlns="http://www.w3.org/2000/svg">
<g clip-path="url(#clip0_24_56)">
<path d="M143.064 70.3241L115.819 62.3967C114.683 57.9056 112.907 53.601 110.547 49.6149C115.08 41.3089 119.62 33.0028 124.159 24.6991C125.4 22.427 122.925 19.9404 120.648 21.1905L95.833 34.8187C91.8089 32.3934 87.4477 30.5776 82.8915 29.4304C80.1928 20.237 77.4963 11.0435 74.7976 1.82728C74.0836 -0.615941 70.5705 -0.625067 69.8519 1.82728C67.176 11.0435 64.4932 20.237 61.8127 29.4532C57.3415 30.5959 53.0576 32.3752 49.0925 34.7366C40.7294 30.1741 32.3641 25.5888 24.001 21.0263C21.7335 19.7876 19.2446 22.265 20.4947 24.5417L34.2507 49.5852C31.8697 53.5898 30.0838 57.9193 28.949 62.4378L1.83639 70.3857C-0.604549 71.102 -0.618236 74.6197 1.83639 75.3314L28.9582 83.2223C30.1253 87.822 31.9615 92.2254 34.4081 96.2916C29.8958 104.545 25.3835 112.796 20.8757 121.052C19.6301 123.324 22.1053 125.813 24.382 124.565C32.6241 120.037 40.8686 115.509 49.113 110.985C53.1179 113.373 57.449 115.165 61.9701 116.305C64.6141 125.348 67.2672 134.382 69.9157 143.413C70.6343 145.863 74.1497 145.868 74.8615 143.413C77.4872 134.391 80.1198 125.366 82.7409 116.341C87.3123 115.198 91.691 113.389 95.7372 110.974L120.315 124.406C120.547 124.599 120.817 124.742 121.107 124.824C121.398 124.907 121.702 124.929 122.001 124.887C122.622 124.851 123.174 124.565 123.603 124.146C124.077 123.708 124.401 123.117 124.44 122.446C124.479 122.145 124.455 121.838 124.369 121.546C124.284 121.255 124.138 120.984 123.943 120.751C119.458 112.577 114.961 104.397 110.474 96.2186C112.869 92.1806 114.665 87.8168 115.808 83.2633C124.887 80.5988 133.98 77.9343 143.062 75.2744C145.51 74.5581 145.519 71.0381 143.066 70.3241" fill="#FBB041"/>
<path d="M71.9803 113.463C94.5337 113.463 112.817 95.1793 112.817 72.6259C112.817 50.0724 94.5337 31.7892 71.9803 31.7892C49.4268 31.7892 31.1436 50.0724 31.1436 72.6259C31.1436 95.1793 49.4268 113.463 71.9803 113.463Z" fill="#F9EC21"/>
</g>
<defs>
<clipPath id="clip0_24_56">
<rect width="146" height="146" fill="white"/>
</clipPath>
</defs>
</svg>
