<svg width="1200" height="435" viewBox="0 0 1200 435" fill="none" xmlns="http://www.w3.org/2000/svg">
<g clip-path="url(#clip0_24_29)">
<path fill-rule="evenodd" clip-rule="evenodd" d="M0 177.34L50 159.374C100 141.408 200 105.476 300 135.419C400 165.363 500 261.181 600 249.204C700 237.227 800 117.453 900 99.4872C1000 81.5211 1100 165.363 1150 207.283L1200 249.204V357V434C1150 434 1024 434 924 434C824 434 715.5 434 615.5 434C515.5 434 360 434 260 434C160 434 50 434 0 434V357V177.34Z" fill="#3BAEA0"/>
<g filter="url(#filter0_dii_24_29)">
<path fill-rule="evenodd" clip-rule="evenodd" d="M0 175.34L50 157.374C100 139.408 200 103.476 300 133.419C400 163.363 500 259.181 600 247.204C700 235.227 800 115.453 900 97.4872C1000 79.5211 1100 163.363 1150 205.283L1200 247.204V355V432C1150 432 1024 432 924 432C824 432 715.5 432 615.5 432C515.5 432 360 432 260 432C160 432 50 432 0 432V355V175.34Z" fill="url(#paint0_linear_24_29)"/>
</g>
<g clip-path="url(#clip1_24_29)">
<path d="M938.141 152.089H976.859V185H938.141V152.089Z" fill="#947151"/>
<path d="M957.5 104.52L874.531 160.386C874.531 160.386 914.633 169.789 957.5 169.789C1000.37 169.789 1040.47 160.386 1040.47 160.386L957.5 104.52Z" fill="#71A03A"/>
<path d="M957.5 73.2687L888.359 129.134C888.359 129.134 921.823 138.537 957.5 138.537C993.177 138.537 1026.64 129.134 1026.64 129.134L957.5 73.2687Z" fill="#76AA3F"/>
<path d="M957.5 42.0172L902.188 97.8828C902.188 97.8828 929.014 107.286 957.5 107.286C985.986 107.286 1012.81 97.8828 1012.81 97.8828L957.5 42.0172Z" fill="#7CB545"/>
<path d="M957.5 10.7656L916.016 65.525C916.016 65.525 935.928 76.0344 957.5 76.0344C979.072 76.0344 998.984 65.525 998.984 65.525L957.5 10.7656Z" fill="#83BF4F"/>
</g>
<g clip-path="url(#clip2_24_29)">
<path d="M710.141 251.089H748.859V284H710.141V251.089Z" fill="#947151"/>
<path d="M729.5 203.52L646.531 259.386C646.531 259.386 686.633 268.789 729.5 268.789C772.367 268.789 812.469 259.386 812.469 259.386L729.5 203.52Z" fill="#71A03A"/>
<path d="M729.5 172.269L660.359 228.134C660.359 228.134 693.823 237.537 729.5 237.537C765.177 237.537 798.641 228.134 798.641 228.134L729.5 172.269Z" fill="#76AA3F"/>
<path d="M729.5 141.017L674.188 196.883C674.188 196.883 701.014 206.286 729.5 206.286C757.986 206.286 784.812 196.883 784.812 196.883L729.5 141.017Z" fill="#7CB545"/>
<path d="M729.5 109.766L688.016 164.525C688.016 164.525 707.928 175.034 729.5 175.034C751.072 175.034 770.984 164.525 770.984 164.525L729.5 109.766Z" fill="#83BF4F"/>
</g>
<g clip-path="url(#clip3_24_29)">
<path d="M244.141 171.089H282.859V204H244.141V171.089Z" fill="#947151"/>
<path d="M263.5 123.52L180.531 179.386C180.531 179.386 220.633 188.789 263.5 188.789C306.367 188.789 346.469 179.386 346.469 179.386L263.5 123.52Z" fill="#71A03A"/>
<path d="M263.5 92.2687L194.359 148.134C194.359 148.134 227.823 157.537 263.5 157.537C299.177 157.537 332.641 148.134 332.641 148.134L263.5 92.2687Z" fill="#76AA3F"/>
<path d="M263.5 61.0172L208.188 116.883C208.188 116.883 235.014 126.286 263.5 126.286C291.986 126.286 318.812 116.883 318.812 116.883L263.5 61.0172Z" fill="#7CB545"/>
<path d="M263.5 29.7656L222.016 84.525C222.016 84.525 241.928 95.0344 263.5 95.0344C285.072 95.0344 304.984 84.525 304.984 84.525L263.5 29.7656Z" fill="#83BF4F"/>
</g>
<g clip-path="url(#clip4_24_29)">
<path d="M421.141 324.089H459.859V357H421.141V324.089Z" fill="#947151"/>
<path d="M440.5 276.52L357.531 332.386C357.531 332.386 397.633 341.789 440.5 341.789C483.367 341.789 523.469 332.386 523.469 332.386L440.5 276.52Z" fill="#71A03A"/>
<path d="M440.5 245.269L371.359 301.134C371.359 301.134 404.823 310.537 440.5 310.537C476.177 310.537 509.641 301.134 509.641 301.134L440.5 245.269Z" fill="#76AA3F"/>
<path d="M440.5 214.017L385.188 269.883C385.188 269.883 412.014 279.286 440.5 279.286C468.986 279.286 495.812 269.883 495.812 269.883L440.5 214.017Z" fill="#7CB545"/>
<path d="M440.5 182.766L399.016 237.525C399.016 237.525 418.928 248.034 440.5 248.034C462.072 248.034 481.984 237.525 481.984 237.525L440.5 182.766Z" fill="#83BF4F"/>
</g>
<g clip-path="url(#clip5_24_29)">
<path d="M1046.14 366.089H1084.86V399H1046.14V366.089Z" fill="#947151"/>
<path d="M1065.5 318.52L982.531 374.386C982.531 374.386 1022.63 383.789 1065.5 383.789C1108.37 383.789 1148.47 374.386 1148.47 374.386L1065.5 318.52Z" fill="#71A03A"/>
<path d="M1065.5 287.269L996.359 343.134C996.359 343.134 1029.82 352.537 1065.5 352.537C1101.18 352.537 1134.64 343.134 1134.64 343.134L1065.5 287.269Z" fill="#76AA3F"/>
<path d="M1065.5 256.017L1010.19 311.883C1010.19 311.883 1037.01 321.286 1065.5 321.286C1093.99 321.286 1120.81 311.883 1120.81 311.883L1065.5 256.017Z" fill="#7CB545"/>
<path d="M1065.5 224.766L1024.02 279.525C1024.02 279.525 1043.93 290.034 1065.5 290.034C1087.07 290.034 1106.98 279.525 1106.98 279.525L1065.5 224.766Z" fill="#83BF4F"/>
</g>
<g clip-path="url(#clip6_24_29)">
<path d="M86.1406 332.089H124.859V365H86.1406V332.089Z" fill="#947151"/>
<path d="M105.5 284.52L22.5312 340.386C22.5312 340.386 62.6328 349.789 105.5 349.789C148.367 349.789 188.469 340.386 188.469 340.386L105.5 284.52Z" fill="#71A03A"/>
<path d="M105.5 253.269L36.3594 309.134C36.3594 309.134 69.8234 318.537 105.5 318.537C141.177 318.537 174.641 309.134 174.641 309.134L105.5 253.269Z" fill="#76AA3F"/>
<path d="M105.5 222.017L50.1875 277.883C50.1875 277.883 77.0141 287.286 105.5 287.286C133.986 287.286 160.812 277.883 160.812 277.883L105.5 222.017Z" fill="#7CB545"/>
<path d="M105.5 190.766L64.0156 245.525C64.0156 245.525 83.9281 256.034 105.5 256.034C127.072 256.034 146.984 245.525 146.984 245.525L105.5 190.766Z" fill="#83BF4F"/>
</g>
</g>
<defs>
<filter id="filter0_dii_24_29" x="-204.933" y="-7.46667" width="1609.87" height="746.867" filterUnits="userSpaceOnUse" color-interpolation-filters="sRGB">
<feFlood flood-opacity="0" result="BackgroundImageFix"/>
<feColorMatrix in="SourceAlpha" type="matrix" values="0 0 0 0 0 0 0 0 0 0 0 0 0 0 0 0 0 0 127 0" result="hardAlpha"/>
<feOffset dy="102.467"/>
<feGaussianBlur stdDeviation="102.467"/>
<feColorMatrix type="matrix" values="0 0 0 0 0.0462745 0 0 0 0 0.136471 0 0 0 0 0.12549 0 0 0 0.25 0"/>
<feBlend mode="normal" in2="BackgroundImageFix" result="effect1_dropShadow_24_29"/>
<feBlend mode="normal" in="SourceGraphic" in2="effect1_dropShadow_24_29" result="shape"/>
<feColorMatrix in="SourceAlpha" type="matrix" values="0 0 0 0 0 0 0 0 0 0 0 0 0 0 0 0 0 0 127 0" result="hardAlpha"/>
<feOffset dy="34.1556"/>
<feGaussianBlur stdDeviation="17.0778"/>
<feComposite in2="hardAlpha" operator="arithmetic" k2="-1" k3="1"/>
<feColorMatrix type="matrix" values="0 0 0 0 0.268392 0 0 0 0 0.791529 0 0 0 0 0.727843 0 0 0 1 0"/>
<feBlend mode="normal" in2="shape" result="effect2_innerShadow_24_29"/>
<feColorMatrix in="SourceAlpha" type="matrix" values="0 0 0 0 0 0 0 0 0 0 0 0 0 0 0 0 0 0 127 0" result="hardAlpha"/>
<feOffset dy="-34.1556"/>
<feGaussianBlur stdDeviation="17.0778"/>
<feComposite in2="hardAlpha" operator="arithmetic" k2="-1" k3="1"/>
<feColorMatrix type="matrix" values="0 0 0 0 0.185098 0 0 0 0 0.545882 0 0 0 0 0.501961 0 0 0 1 0"/>
<feBlend mode="normal" in2="effect2_innerShadow_24_29" result="effect3_innerShadow_24_29"/>
</filter>
<linearGradient id="paint0_linear_24_29" x1="600" y1="95" x2="600" y2="432" gradientUnits="userSpaceOnUse">
<stop stop-color="#42C3B3"/>
<stop offset="1" stop-color="#329286"/>
</linearGradient>
<clipPath id="clip0_24_29">
<rect width="1200" height="536" fill="white"/>
</clipPath>
<clipPath id="clip1_24_29">
<rect width="177" height="177" fill="white" transform="translate(869 8)"/>
</clipPath>
<clipPath id="clip2_24_29">
<rect width="177" height="177" fill="white" transform="translate(641 107)"/>
</clipPath>
<clipPath id="clip3_24_29">
<rect width="177" height="177" fill="white" transform="translate(175 27)"/>
</clipPath>
<clipPath id="clip4_24_29">
<rect width="177" height="177" fill="white" transform="translate(352 180)"/>
</clipPath>
<clipPath id="clip5_24_29">
<rect width="177" height="177" fill="white" transform="translate(977 222)"/>
</clipPath>
<clipPath id="clip6_24_29">
<rect width="177" height="177" fill="white" transform="translate(17 188)"/>
</clipPath>
</defs>
</svg>
